<svg xmlns="http://www.w3.org/2000/svg" width="24.734" height="30.919" viewBox="0 0 24.734 30.919">
  <g id="_-Product-Icons" data-name="ðŸ”-Product-Icons" transform="translate(0 0)">
    <g id="ic_fluent_bot_24_regular">
      <path id="_-Color" data-name="ðŸŽ¨-Color" d="M25.259,20.55a3.478,3.478,0,0,1,3.478,3.478v1.4a5.8,5.8,0,0,1-2.021,4.4c-2.42,2.078-5.883,3.093-10.351,3.093S8.437,31.9,6.021,29.827A5.8,5.8,0,0,1,4,25.431v-1.4A3.478,3.478,0,0,1,7.482,20.55Zm0,2.319H7.482a1.159,1.159,0,0,0-1.159,1.159v1.4a3.478,3.478,0,0,0,1.211,2.638c1.945,1.672,4.876,2.532,8.832,2.532s6.891-.86,8.841-2.534a3.479,3.479,0,0,0,1.213-2.639v-1.4A1.159,1.159,0,0,0,25.259,22.869ZM16.208,2.011,16.366,2a1.16,1.16,0,0,1,1.149,1l.011.157V4.318h5.411A3.478,3.478,0,0,1,26.414,7.8V14.76a3.478,3.478,0,0,1-3.478,3.478H9.8A3.478,3.478,0,0,1,6.317,14.76V7.8A3.478,3.478,0,0,1,9.8,4.319h5.41V3.16a1.16,1.16,0,0,1,1-1.149L16.366,2Zm6.727,4.626H9.8A1.159,1.159,0,0,0,8.636,7.8V14.76A1.159,1.159,0,0,0,9.8,15.92h13.14a1.159,1.159,0,0,0,1.159-1.159V7.8A1.159,1.159,0,0,0,22.935,6.637ZM12.886,8.956a1.931,1.931,0,1,1-1.931,1.931A1.931,1.931,0,0,1,12.886,8.956Zm6.945,0A1.931,1.931,0,1,1,17.9,10.888,1.931,1.931,0,0,1,19.831,8.956Z" transform="translate(-4.004 -2)" fill="#377dff"/>
    </g>
  </g>
</svg>
