<svg id="_-Product-Icons" data-name="ðŸ”-Product-Icons" xmlns="http://www.w3.org/2000/svg" width="25.766" height="25.766" viewBox="0 0 25.766 25.766">
  <g id="ic_fluent_developer_board_24_regular" transform="translate(0 0)">
    <path id="_Color" data-name="ðŸŽ¨Color" d="M19.07,2a.967.967,0,0,1,.957.835l.009.131v3A4.837,4.837,0,0,1,23.8,9.73h3a.966.966,0,0,1,.131,1.924l-.131.009H23.9v2.254h2.9a.967.967,0,0,1,.957.835l.009.131a.967.967,0,0,1-.835.957l-.131.009H23.9V18.1h2.9a.967.967,0,0,1,.957.835l.009.131a.967.967,0,0,1-.835.957l-.131.009h-3A4.837,4.837,0,0,1,20.037,23.8v3a.966.966,0,0,1-1.924.131L18.1,26.8V23.9H15.848v2.9a.967.967,0,0,1-.835.957l-.131.009a.967.967,0,0,1-.957-.835l-.009-.131V23.9H11.662v2.9a.967.967,0,0,1-.835.957l-.131.009a.966.966,0,0,1-.957-.835L9.73,26.8v-3a4.837,4.837,0,0,1-3.769-3.768h-3a.966.966,0,0,1-.131-1.924l.131-.009h2.9V15.848h-2.9a.966.966,0,0,1-.957-.835L2,14.883a.967.967,0,0,1,.835-.957l.131-.009h2.9V11.661h-2.9a.966.966,0,0,1-.957-.835L2,10.7a.966.966,0,0,1,.835-.957l.131-.009h3A4.837,4.837,0,0,1,9.73,5.961v-3a.966.966,0,0,1,1.924-.131l.009.131v2.9h2.253v-2.9a.966.966,0,0,1,.835-.957L14.883,2a.967.967,0,0,1,.957.835l.009.131v2.9H18.1v-2.9a.967.967,0,0,1,.709-.932l.126-.026Zm0,5.8H10.7a2.9,2.9,0,0,0-2.9,2.9V19.07a2.9,2.9,0,0,0,2.9,2.9H19.07a2.9,2.9,0,0,0,2.9-2.9V10.7A2.9,2.9,0,0,0,19.07,7.8Zm-4.181,3.227a3.865,3.865,0,1,1-3.865,3.865A3.865,3.865,0,0,1,14.889,11.024Zm0,1.932a1.932,1.932,0,1,0,1.932,1.932A1.932,1.932,0,0,0,14.889,12.957Z" transform="translate(-2 -2)" fill="#377dff"/>
  </g>
</svg>
