<svg id="_-Product-Icons" data-name="ðŸ”-Product-Icons" xmlns="http://www.w3.org/2000/svg" width="24.735" height="30.919" viewBox="0 0 24.735 30.919">
  <g id="ic_fluent_lock_24_regular" transform="translate(0 0)">
    <path id="_-Color" data-name="ðŸŽ¨-Color" d="M16.368,2a6.184,6.184,0,0,1,6.184,6.184v3.092h2.705a3.478,3.478,0,0,1,3.478,3.478V29.44a3.478,3.478,0,0,1-3.478,3.478H7.478A3.478,3.478,0,0,1,4,29.44V14.754a3.478,3.478,0,0,1,3.478-3.478h2.705V8.184A6.184,6.184,0,0,1,16.368,2Zm8.889,11.595H7.478a1.159,1.159,0,0,0-1.159,1.159V29.44A1.159,1.159,0,0,0,7.478,30.6H25.257a1.159,1.159,0,0,0,1.159-1.159V14.754A1.159,1.159,0,0,0,25.257,13.595Zm-8.889,6.184A2.319,2.319,0,1,1,14.049,22.1,2.319,2.319,0,0,1,16.368,19.778Zm0-15.459A3.865,3.865,0,0,0,12.5,8.184v3.092h7.73V8.184A3.865,3.865,0,0,0,16.368,4.319Z" transform="translate(-4 -2)" fill="#377dff"/>
  </g>
</svg>
