<svg xmlns="http://www.w3.org/2000/svg" width="1590" height="426" viewBox="0 0 1590 426">
  <g id="Group_1" data-name="Group 1" transform="translate(-165 -312)">
    <path id="Rectangle_1" data-name="Rectangle 1" d="M0,0H1468a122,122,0,0,1,122,122v6a0,0,0,0,1,0,0H122A122,122,0,0,1,0,6V0A0,0,0,0,1,0,0Z" transform="translate(165 312)" fill="#00237d"/>
    <path id="Rectangle_30" data-name="Rectangle 30" d="M0,0H979a0,0,0,0,1,0,0V6A122,122,0,0,1,857,128H128A128,128,0,0,1,0,0V0A0,0,0,0,1,0,0Z" transform="translate(776 610)" fill="#00237d"/>
  </g>
</svg>
