<svg id="_-Product-Icons" data-name="ðŸ”-Product-Icons" xmlns="http://www.w3.org/2000/svg" width="34.345" height="30.919" viewBox="0 0 34.345 30.919">
  <g id="ic_fluent_people_community_24_regular">
    <path id="_-Color" data-name="ðŸŽ¨-Color" d="M23.89,23.6a3,3,0,0,1,3,3l0,1.652c.2,3.758-2.594,5.66-7.609,5.66-4.994,0-7.841-1.871-7.841-5.6V26.607a3,3,0,0,1,3-3Zm0,2.575H14.447a.429.429,0,0,0-.429.429v1.717c0,2.019,1.522,3.02,5.265,3.02,3.722,0,5.143-.967,5.036-3.017v-1.72A.429.429,0,0,0,23.89,26.178ZM5,15.018h7.513a6.933,6.933,0,0,0-.163,2.574H5a.429.429,0,0,0-.429.429v1.717c0,2.019,1.522,3.02,5.265,3.02a14.106,14.106,0,0,0,2.073-.133A4.709,4.709,0,0,0,9.9,25.333H9.841C4.846,25.335,2,23.464,2,19.739V18.022A3,3,0,0,1,5,15.018Zm28.328,0a3,3,0,0,1,3,3l0,1.652c.2,3.758-2.594,5.66-7.609,5.66l-.289,0a4.73,4.73,0,0,0-2.091-2.758,13.1,13.1,0,0,0,2.38.186c3.722,0,5.143-.967,5.036-3.017v-1.72a.429.429,0,0,0-.429-.429h-7.35a6.953,6.953,0,0,0,.053-.857,6.875,6.875,0,0,0-.216-1.717ZM19.169,11.584a5.151,5.151,0,1,1-5.151,5.151A5.151,5.151,0,0,1,19.169,11.584Zm0,2.575a2.575,2.575,0,1,0,2.575,2.575A2.575,2.575,0,0,0,19.169,14.16ZM9.726,3A5.151,5.151,0,1,1,4.575,8.151,5.151,5.151,0,0,1,9.726,3ZM28.611,3a5.151,5.151,0,1,1-5.151,5.151A5.151,5.151,0,0,1,28.611,3ZM9.726,5.575A2.575,2.575,0,1,0,12.3,8.151,2.575,2.575,0,0,0,9.726,5.575Zm18.885,0a2.575,2.575,0,1,0,2.575,2.575A2.575,2.575,0,0,0,28.611,5.575Z" transform="translate(-2 -3)" fill="#377dff"/>
  </g>
</svg>
