<svg id="_-Product-Icons" data-name="ðŸ”-Product-Icons" xmlns="http://www.w3.org/2000/svg" width="32.207" height="25.766" viewBox="0 0 32.207 25.766">
  <g id="ic_fluent_mail_24_regular">
    <path id="_-Color" data-name="ðŸŽ¨-Color" d="M7.234,4h21.74A5.234,5.234,0,0,1,34.2,8.937l.008.3v15.3a5.234,5.234,0,0,1-4.937,5.225l-.3.008H7.234a5.234,5.234,0,0,1-5.225-4.937L2,24.532V9.234A5.234,5.234,0,0,1,6.937,4.008L7.234,4h0Zm24.558,8.652-13.126,6.91a1.208,1.208,0,0,1-.97.068l-.155-.068L4.416,12.654V24.532A2.818,2.818,0,0,0,7,27.341l.231.009h21.74a2.818,2.818,0,0,0,2.809-2.587l.009-.231ZM28.973,6.416H7.234A2.818,2.818,0,0,0,4.425,9l-.009.231v.691l13.688,7.2L31.792,9.923V9.234A2.818,2.818,0,0,0,29.2,6.425Z" transform="translate(-2 -4)" fill="#377dff"/>
  </g>
</svg>
