<svg id="_-System-Icons" data-name="ðŸ”-System-Icons" xmlns="http://www.w3.org/2000/svg" width="21.257" height="25.766" viewBox="0 0 21.257 25.766">
  <g id="ic_fluent_dictionary_24_regular" transform="translate(0 0)">
    <path id="_-Color" data-name="ðŸŽ¨-Color" d="M22.036,2a3.221,3.221,0,0,1,3.221,3.221V23.579a.966.966,0,0,1-.966.966H5.932a1.288,1.288,0,0,0,1.288,1.288H24.29a.966.966,0,0,1,0,1.932H7.221A3.221,3.221,0,0,1,4,24.545V5.221A3.221,3.221,0,0,1,7.221,2Zm0,1.932H7.221A1.288,1.288,0,0,0,5.932,5.221V22.613H23.324V5.221A1.288,1.288,0,0,0,22.036,3.932ZM19.459,5.865a1.288,1.288,0,0,1,1.288,1.288V9.73a1.288,1.288,0,0,1-1.288,1.288H9.153A1.288,1.288,0,0,1,7.865,9.73V7.153A1.288,1.288,0,0,1,9.153,5.865ZM18.815,7.8H9.8V9.086h9.018Z" transform="translate(-4 -2)" fill="#377dff"/>
  </g>
</svg>
